<?xml version="1.0" encoding="UTF-8"?>
<svg width="53px" height="52px" viewBox="0 0 53 52" version="1.1" xmlns="http://www.w3.org/2000/svg" xmlns:xlink="http://www.w3.org/1999/xlink">
    <title>hhs-logo</title>
    <g id="Page-1" stroke="none" stroke-width="1" fill="none" fill-rule="evenodd">
        <g id="hhs-logo" transform="translate(0.000000, -0.000265)" fill="#00426B" fill-rule="nonzero">
            <path d="M25.522951,50.041239 C25.513591,49.421915 25.893982,48.7959603 26.876714,48.7760676 L28.053318,48.7535227 L28.06134,48.9007281 C27.670253,48.9325563 27.655546,48.9431657 27.642175,49.0413027 C27.626131,49.1619847 27.632816,49.4451231 27.644849,49.9908443 C27.660894,50.5319238 27.663568,50.8150623 27.678944,50.9383966 C27.696994,51.0345443 27.715044,51.0451537 28.104794,51.0617309 L28.108137,51.2122518 L26.874708,51.2347968 C26.369972,51.2480586 26.13064,51.1439538 25.895988,50.9304396 C25.679385,50.7441119 25.529636,50.4377654 25.522951,50.041239 L25.522951,50.041239 Z M24.532196,48.9657107 C24.540219,48.9179684 24.516152,48.8954234 24.472029,48.8954234 L23.862334,48.8423764 C23.5742,48.8158529 23.488629,48.8894556 23.399715,49.1142424 L23.296762,49.3496385 L23.135648,49.2912868 C23.200494,49.1023068 23.272027,48.7760676 23.293419,48.6222313 L25.309691,48.7899925 L25.298326,48.9365349 C24.958715,48.9338825 24.942671,48.9431657 24.922615,49.0413027 C24.899885,49.1580061 24.868465,49.4378292 24.82501,49.9908443 C24.781556,50.5299346 24.754147,50.8057791 24.758826,50.9304396 C24.763506,51.0279134 24.776877,51.0385228 25.109134,51.0915699 L25.098437,51.2414277 L23.746679,51.1287028 C23.541442,51.1101363 23.336205,51.1141148 23.18445,51.1280397 C23.192472,50.9549738 23.192472,50.5504903 23.177765,50.4516902 L23.336205,50.4384285 C23.394367,50.903253 23.46523,50.9609416 23.967961,50.9980745 L24.29019,51.024598 C24.33097,51.0279134 24.354369,51.0106732 24.361723,50.9609416 L24.431918,50.1586055 C24.434592,50.1115262 24.425901,50.0962752 24.319605,50.0850027 L24.215984,50.0810242 C23.830245,50.0432282 23.798156,50.1048954 23.739994,50.3482486 L23.585565,50.336313 C23.600272,50.2202726 23.617654,50.1082108 23.631025,49.9404496 C23.64239,49.7978858 23.645732,49.6427233 23.65108,49.5406077 L23.816206,49.5538695 C23.816206,49.8131368 23.857655,49.875467 24.134424,49.898012 L24.384452,49.9212201 C24.425901,49.9232093 24.449968,49.9092845 24.45331,49.8615422 L24.532196,48.9657107 Z M20.533079,50.004106 C20.632021,49.5173997 21.09932,49.3874345 21.731745,49.5014856 C21.826007,49.5207151 21.928291,49.5472386 21.980436,49.5551957 L22.135534,48.7243468 C22.154253,48.6295253 22.120826,48.6129481 21.717706,48.5114956 L21.740436,48.3662794 L23.005954,48.5957078 L22.98055,48.7435763 C22.614198,48.703128 22.593474,48.7084327 22.562053,48.7986126 C22.525953,48.9133268 22.469128,49.1958021 22.368181,49.7309139 C22.26857,50.2693411 22.21442,50.5451856 22.206398,50.6671937 C22.206398,50.7620153 22.221774,50.7759401 22.578766,50.8714247 L22.550688,51.016641 L21.250407,50.7805817 C20.98166,50.7301871 20.787119,50.6274085 20.661436,50.4762245 C20.550461,50.3495747 20.502327,50.185129 20.533079,50.004106 L20.533079,50.004106 Z M18.45664,47.7018656 L18.499426,47.553997 L19.684053,47.8842147 L19.641267,48.0241262 C19.291628,47.9425664 19.252854,47.9690899 19.229455,48.0546282 C19.2094,48.1242524 19.249511,48.54465 19.255528,48.5877507 C19.262213,48.6069803 19.277589,48.6195789 19.293634,48.6288622 C19.381211,48.6613535 19.55369,48.7170528 19.898649,48.8112113 C20.120599,48.8722154 20.13397,48.8582905 20.185446,48.7986126 C20.329848,48.6129481 20.436143,48.4465131 20.447508,48.4153479 C20.47826,48.3072646 20.444834,48.2754364 20.121936,48.1580699 L20.167396,48.0135168 L21.095309,48.2754364 L21.057203,48.4173372 C20.774417,48.3603117 20.704222,48.4319251 20.509012,48.6845615 L19.487506,49.9968121 C19.317032,50.215631 19.272241,50.2739827 19.201377,50.3900231 L19.016196,50.3369761 C19.030904,50.2282297 19.016196,50.0206832 19.004163,49.9006644 L18.78756,48.0685531 C18.763493,47.8212214 18.747449,47.7774576 18.45664,47.7018656 L18.45664,47.7018656 Z M15.749782,48.4617641 C15.944992,47.9810255 16.516581,48.1109907 16.527277,48.083141 C16.533294,48.0685531 16.533294,48.0387141 16.518586,47.985004 L16.280591,47.069943 C16.223767,46.835873 16.199031,46.7940985 16.045271,46.7291159 L16.098753,46.5911937 L16.648949,46.8146542 L16.934409,48.1249155 C16.947779,48.1686793 16.966498,48.1852565 17.104883,48.2363143 C17.234577,48.2886982 17.245273,48.2913505 17.259981,48.2588592 C17.505329,47.6720266 17.542098,47.5798574 17.566834,47.4843728 C17.596917,47.394856 17.58221,47.3729741 17.266666,47.2204639 L17.325496,47.0818786 L18.433242,47.5274735 L18.373743,47.667385 C18.03547,47.5599648 18.014745,47.5619541 17.967949,47.6461662 C17.901096,47.7509341 17.798812,48.0102013 17.587558,48.5148111 C17.372961,49.0247255 17.266666,49.2826666 17.234577,49.4006962 C17.204493,49.4941916 17.222543,49.512095 17.534744,49.6685837 L17.476583,49.807169 L16.241148,49.3111794 C15.983766,49.2057485 15.866106,49.1182209 15.775186,48.9743309 C15.678919,48.8337563 15.664211,48.6573749 15.749782,48.4617641 L15.749782,48.4617641 Z M13.226769,47.9220107 C13.367828,47.6282628 13.440697,47.4419352 13.478134,47.3020237 L13.641254,47.3444613 C13.57975,47.7761314 13.576407,47.8921717 13.686714,47.9491973 L14.053066,48.1341987 L14.82187,46.6933092 C14.918137,46.5089708 14.972288,46.3949197 15.002371,46.3279479 C15.029781,46.2351156 15.017079,46.2178753 14.688165,46.0216014 L14.757691,45.8883207 L15.902206,46.4698486 L15.831342,46.6057816 C15.476356,46.449956 15.452289,46.449956 15.39279,46.5295265 C15.354684,46.5911937 15.289169,46.6986139 15.190895,46.880963 L14.426771,48.3205264 L14.793123,48.5095064 C14.902093,48.5658688 14.997023,48.4982339 15.317247,48.2011706 L15.452289,48.3079277 C15.354684,48.416011 15.239698,48.5797937 15.076578,48.8662476 C15.017079,48.8224838 14.963597,48.7873401 14.899419,48.7455656 C14.843262,48.7090958 14.785769,48.6693105 14.720254,48.642787 L13.618524,48.0824779 C13.485488,48.0155061 13.355794,47.9664376 13.226769,47.9220107 L13.226769,47.9220107 Z M10.105425,45.867765 L10.196345,45.7404522 C10.531944,45.9373892 10.552,45.9413677 10.617515,45.867765 C10.695733,45.7749327 10.864201,45.5388735 11.175065,45.0879739 C11.489941,44.6410528 11.657072,44.4056566 11.710554,44.2975734 C11.761362,44.2146874 11.749328,44.1934686 11.441807,43.9567463 L11.52203,43.8320858 L12.561586,44.5283279 L12.478021,44.6516622 C12.15178,44.4653345 12.12036,44.4653345 12.072226,44.536948 L10.942419,46.1575343 L12.706656,44.9122556 C12.757464,44.8751227 12.806266,44.8426314 12.85908,44.7968784 L13.081699,44.9460731 C13.068328,44.9772382 13.044261,45.0329376 13.028885,45.0899631 L12.45997,47.1727216 L12.461976,47.1786894 L13.410613,45.8246643 C13.474123,45.7358106 13.546992,45.5945729 13.572396,45.542852 C13.614513,45.4573137 13.607828,45.4400734 13.334401,45.2258961 L13.419973,45.1032249 L14.274348,45.6695018 L14.182091,45.7974777 C13.846492,45.6012038 13.82443,45.6012038 13.757578,45.6695018 C13.678023,45.7629972 13.515572,45.9977302 13.200696,46.4459775 C12.886489,46.8955509 12.726043,47.130284 12.663871,47.2357149 C12.622422,47.3258948 12.630444,47.3437982 12.937966,47.5798574 L12.852395,47.7018656 L12.053507,47.1674169 C12.058855,47.1448719 12.082922,47.1044236 12.094956,47.069943 L12.60972,45.1907525 L12.602366,45.1854478 L10.89629,46.3949197 L10.105425,45.867765 Z M8.377288,44.4275385 C8.493611,44.2962472 8.733612,43.9673557 8.77974,43.8811543 L8.913445,43.9567463 C8.683472,44.3698499 8.710213,44.454062 9.089267,44.7796381 L9.33261,44.9871846 C9.368042,45.0150342 9.39144,45.0117188 9.430215,44.9765752 L9.969046,44.3718392 C10.001135,44.3353694 10.005146,44.3148136 9.919575,44.2485049 L9.850049,44.1835223 C9.555229,43.9302228 9.493056,43.9593986 9.301189,44.1231813 L9.178849,44.022392 C9.261746,43.9381798 9.337958,43.8619247 9.456287,43.7286441 C9.555229,43.6232132 9.654171,43.4965634 9.717012,43.4203083 L9.842026,43.52375 C9.682249,43.7312965 9.677569,43.8055623 9.892166,43.9872483 L10.074673,44.1516941 C10.109436,44.1755652 10.137514,44.1835223 10.169604,44.1444001 L10.77395,43.4687137 C10.809382,43.4362224 10.802697,43.4037311 10.771945,43.3719029 L10.305314,42.979355 C10.089381,42.7910381 9.977737,42.8029737 9.769826,42.9302865 L9.555229,43.0675457 L9.454282,42.9203402 C9.616733,42.8029737 9.873447,42.5808393 9.986428,42.4714298 L11.507322,43.7757233 L11.405038,43.8897744 C11.138296,43.6895219 11.115567,43.6895219 11.042029,43.7525153 C10.945093,43.8320858 10.761248,44.0469262 10.396234,44.4587037 C10.026539,44.8718073 9.83601,45.0839954 9.766483,45.1808062 C9.713001,45.2623659 9.717012,45.2796062 9.955676,45.5156654 L9.850049,45.6277273 L8.829879,44.7511253 C8.673444,44.6251387 8.504976,44.5057829 8.377288,44.4275385 L8.377288,44.4275385 Z M6.198565,42.1518216 L6.312214,42.0483799 C6.539512,42.2877546 6.57695,42.2963747 6.726031,42.177682 C6.875112,42.0516953 7.04358,41.9064791 7.187982,41.7804925 C7.699403,41.3110264 8.127928,40.9158261 8.322469,40.7056273 L8.500296,40.8952704 C8.394669,41.1896813 8.327148,41.4237513 8.261633,41.7433596 L7.934724,43.2154142 L7.939404,43.2187297 L8.470881,42.7366649 C8.880019,42.3659989 9.089936,42.177682 9.176175,42.0808712 C9.236343,42.0032899 9.232331,41.9833973 8.950214,41.6505273 L9.066537,41.549738 L9.789213,42.3142781 L9.677569,42.4144043 C9.42353,42.1829867 9.401468,42.177682 9.321914,42.2327183 C9.223641,42.3069841 9.009044,42.4979534 8.599238,42.8699456 C8.193443,43.2399485 7.978178,43.4342332 7.900629,43.5257393 C7.833108,43.5986789 7.841799,43.6245393 8.058401,43.8897744 L7.948763,43.9872483 L7.440016,43.4567782 C7.458734,43.4150036 7.468762,43.349358 7.486812,43.2711136 L7.931382,41.360758 L7.92737,41.3574425 L7.516896,41.7294347 C7.110433,42.1014269 6.89851,42.29107 6.81695,42.3852284 C6.754777,42.4581681 6.756783,42.487344 7.006143,42.7791025 L6.893162,42.880555 L6.198565,42.1518216 Z M4.622182,40.166537 C4.882907,39.9629691 5.035331,39.8250469 5.127587,39.7176267 L5.251933,39.8250469 C5.003242,40.1904082 4.955108,40.2865559 5.025972,40.3873452 L5.273326,40.7096058 L6.605696,39.73553 C6.772828,39.6115326 6.871769,39.5286467 6.927257,39.4842198 C6.996784,39.4145956 6.996784,39.3947029 6.78085,39.0724423 L6.905196,38.9842517 L7.676674,39.9914819 L7.556339,40.0849772 C7.300294,39.7918925 7.281575,39.7865878 7.196004,39.8316777 C7.131826,39.8694737 7.026199,39.9390979 6.857062,40.0630953 L5.526697,41.0411497 L5.774051,41.3627472 C5.84692,41.4582319 5.961907,41.4383392 6.387757,41.3097002 L6.459289,41.4582319 C6.32291,41.5179097 6.14642,41.6186991 5.872993,41.799722 C5.834887,41.7407072 5.803466,41.6757246 5.768703,41.6186991 C5.729928,41.5629997 5.689817,41.5013326 5.648368,41.4476224 L4.909648,40.4788513 C4.813381,40.3575063 4.720456,40.25738 4.622182,40.166537 L4.622182,40.166537 Z M3.658169,36.0016832 C4.352767,35.6403004 5.058729,35.841216 5.374273,36.4167761 C5.684469,36.9969779 5.455165,37.685926 4.764578,38.0499611 C4.069981,38.404713 3.358001,38.200482 3.051148,37.6235957 C2.73761,37.0447202 2.962903,36.3570982 3.658169,36.0016832 L3.658169,36.0016832 Z M1.592427,34.4096097 C1.747525,34.3452902 2.119893,34.1589625 2.200785,34.0999477 L2.28435,34.2259344 C1.888583,34.4944849 1.873207,34.5800232 2.063068,35.0355645 L2.182066,35.3313016 C2.199448,35.3697607 2.226857,35.3810331 2.276328,35.3631298 L3.036441,35.0634141 C3.076552,35.0455108 3.09126,35.0282705 3.051148,34.9347751 L3.013711,34.8379643 C2.866636,34.487854 2.801789,34.487854 2.553097,34.548195 L2.491593,34.4029788 C2.6019,34.3618674 2.710201,34.3273868 2.86931,34.2630673 C3.012374,34.2086941 3.155438,34.1496793 3.246358,34.1092309 L3.308531,34.2537841 C3.072541,34.3658459 3.036441,34.4341439 3.13672,34.6874434 L3.234324,34.9122301 C3.246358,34.9526785 3.269088,34.9699188 3.321901,34.9500261 L4.128142,34.6284286 C4.220399,34.5959373 4.217056,34.5641091 4.090705,34.1874753 L4.22909,34.1331021 L4.679007,35.2086303 L4.533269,35.2683082 C4.386193,34.9745604 4.37416,34.963951 4.275218,34.9891483 C4.154883,35.0150087 3.88881,35.1257444 3.374715,35.3313016 C2.853265,35.5328802 2.589198,35.6403004 2.476217,35.7032938 C2.38864,35.7483837 2.387303,35.7649609 2.486245,36.0786014 L2.351871,36.1316484 L1.84045,34.9029469 C1.762901,34.7159562 1.663959,34.532944 1.592427,34.4096097 L1.592427,34.4096097 Z M0.439221,30.1492712 L0.59365,30.1101491 C0.701951,30.4549547 0.715322,30.4781627 0.809584,30.4622486 C0.938609,30.4503131 1.220058,30.3826781 1.760895,30.2619961 C2.303737,30.1353464 2.583849,30.0723531 2.702178,30.0299155 C2.795103,29.9954349 2.801789,29.9755423 2.74229,29.6194642 L2.890702,29.5849836 L3.17282,30.7758891 L3.024407,30.8123589 C2.916106,30.4622486 2.904073,30.4456714 2.806468,30.4582701 C2.702178,30.4662272 2.415381,30.5305467 2.002233,30.6280206 C1.899948,30.6505655 1.887915,30.6625011 1.909976,30.752681 L2.12591,31.6571327 C2.145966,31.7479757 2.160673,31.7559327 2.266969,31.7320616 C2.674769,31.6398924 2.961566,31.568942 3.059171,31.5344614 C3.152764,31.500644 3.15945,31.4761097 3.097945,31.1193685 L3.252375,31.0862142 L3.534492,32.2817613 L3.38608,32.3122633 C3.278447,31.9628161 3.259728,31.9502174 3.15945,31.9601637 C3.042458,31.9734255 2.759672,32.0384081 2.216161,32.1617424 C1.670644,32.2864029 1.396549,32.3533747 1.276214,32.3918338 C1.183958,32.4263144 1.174599,32.4481963 1.24212,32.8049375 L1.084348,32.8367657 L0.801562,31.6505018 L0.95198,31.6120427 C1.058944,31.9601637 1.073651,31.9787302 1.174599,31.9628161 C1.246131,31.9601637 1.45939,31.9137476 1.629196,31.8772778 L1.860505,31.8248938 C1.968138,31.7983703 1.974823,31.7870978 1.954767,31.6955917 L1.738834,30.7911401 C1.717441,30.7036126 1.698722,30.6983079 1.597775,30.7208528 L1.361786,30.7712475 C1.197328,30.8156744 0.986743,30.8647429 0.917885,30.8866248 C0.818275,30.9237577 0.816269,30.9436503 0.874431,31.2997284 L0.729361,31.334872 L0.439221,30.1492712 Z M0.123677,27.9219597 C0.293483,27.8947731 0.700614,27.8125502 0.795545,27.780722 L0.841005,27.9219597 C0.387076,28.0777853 0.346965,28.151388 0.409806,28.6420729 L0.445906,28.960355 C0.451923,29.0041188 0.479332,29.020696 0.528803,29.0167175 L1.344404,28.9179174 C1.39588,28.9119496 1.405908,28.9039926 1.39588,28.7992247 L1.383178,28.703077 C1.336382,28.3237908 1.269529,28.3012458 1.01081,28.2972673 L0.994097,28.1480726 C1.113763,28.1328216 1.222732,28.128843 1.40056,28.1062981 C1.544293,28.091047 1.707413,28.0651866 1.805686,28.0466202 L1.820394,28.2037719 C1.56368,28.2594713 1.508861,28.3151707 1.542287,28.5837212 L1.57304,28.8264113 C1.578388,28.8708382 1.594432,28.8880784 1.645909,28.8860892 L2.553097,28.7766797 C2.600563,28.771375 2.622624,28.7508193 2.61995,28.7057293 L2.548418,28.1062981 C2.511649,27.8264751 2.426078,27.7648079 2.178723,27.7177287 L1.924015,27.6739649 L1.950756,27.5042144 C2.149977,27.5260963 2.491593,27.531401 2.652708,27.5168131 L2.890702,29.4795527 L2.740284,29.5034238 C2.672095,29.179837 2.66073,29.1672384 2.559783,29.1672384 C2.4341,29.1705538 2.149977,29.1997297 1.597106,29.262723 C1.042899,29.331021 0.755433,29.3615231 0.636436,29.3933513 C0.540837,29.413907 0.528803,29.429158 0.548191,29.7607019 L0.391756,29.7786052 L0.229304,28.46105 C0.207243,28.2594713 0.159777,28.0578927 0.123677,27.9219597 L0.123677,27.9219597 Z M0,25.9804389 C0.108301,25.965851 0.306853,25.8935744 0.423176,25.8438428 L2.155993,25.1144464 C2.385966,25.0222772 2.427415,24.9964168 2.420729,24.6993535 L2.572485,24.6986904 L2.591872,25.9028577 L2.438111,25.9028577 C2.420729,25.5487688 2.38396,25.5229084 2.292373,25.5229084 C2.217498,25.5229084 1.820394,25.6813864 1.781619,25.7059206 C1.762232,25.7178562 1.752204,25.7297918 1.747525,25.7510106 C1.742176,25.8378751 1.738834,26.0169087 1.742176,26.3749761 C1.747525,26.5964474 1.765575,26.6057306 1.842455,26.6355696 C2.063068,26.7197817 2.258946,26.7695133 2.292373,26.7695133 C2.400674,26.7648717 2.427415,26.7284018 2.448139,26.3935425 L2.59722,26.3908902 L2.617276,27.3351271 L2.463515,27.3391056 C2.438111,27.0659135 2.35254,27.0188342 2.040339,26.9054462 L0.47131,26.3265707 C0.204569,26.2284337 0.136379,26.1985948 0.002006,26.1667666 L0,25.9804389 Z M0.183844,23.2856505 L0.332257,23.2955968 C0.33092,23.6350977 0.338942,23.6536642 0.439221,23.6715676 C0.516101,23.6861555 0.728024,23.7073743 0.897829,23.7259408 L2.32981,23.8459596 C2.456161,23.8545798 2.482902,23.8227516 2.496941,23.7179837 L2.527693,23.3141633 C2.559783,22.9739993 2.458167,22.9103429 1.97616,22.6716313 L2.038333,22.5171319 C2.160673,22.5695158 2.583849,22.6563803 2.76034,22.6782622 L2.589198,24.6230984 L2.436774,24.6144783 C2.436774,24.2763035 2.432763,24.2537586 2.331147,24.2411599 C2.212818,24.2186149 1.925352,24.1960699 1.371145,24.143686 C0.817606,24.0966068 0.528803,24.0733987 0.401784,24.0760511 C0.30351,24.0760511 0.292145,24.0966068 0.237326,24.4268244 L0.078886,24.4142258 L0.183844,23.2856505 Z M0.595656,20.264623 C0.917885,20.3063975 1.12847,20.3150177 1.270866,20.3110391 L1.282231,20.4754849 C0.843679,20.5510769 0.731366,20.5769373 0.708637,20.6962931 L0.638441,21.0987873 L2.278333,21.3766211 C2.482902,21.4104385 2.612596,21.4243634 2.684128,21.4263526 C2.782401,21.4329835 2.800452,21.4150801 2.890702,21.0450772 L3.041789,21.0696115 L2.817165,22.3122378 L2.672095,22.2890297 C2.712206,21.9090805 2.708195,21.8918402 2.608585,21.8620012 C2.539727,21.8401194 2.415381,21.8129328 2.20747,21.7764629 L0.567578,21.4999554 L0.505405,21.9011234 C0.479332,22.0231316 0.572257,22.0874511 0.960002,22.2969868 L0.898498,22.4548016 C0.763456,22.4004285 0.565572,22.3447291 0.244012,22.275768 C0.263399,22.208133 0.284123,22.1431504 0.300168,22.0728631 C0.320224,22.0072175 0.332257,21.9402456 0.347633,21.8739368 L0.555544,20.6764005 C0.583622,20.5285319 0.595656,20.3912727 0.595656,20.264623 L0.595656,20.264623 Z M1.615825,17.7661086 C1.735491,17.8111985 2.009586,17.8881167 2.545075,18.0393007 C3.082569,18.18518 3.355996,18.2614351 3.482347,18.2839801 C3.578615,18.298568 3.592654,18.2839801 3.721011,17.943153 L3.868086,17.9802859 L3.530481,19.1612451 L3.378057,19.1188075 C3.455606,18.7680341 3.448921,18.7415106 3.358001,18.7076931 C3.265745,18.6665817 2.981622,18.5850219 2.577164,18.4716339 C2.474211,18.4457735 2.458167,18.4557198 2.430757,18.5346272 L2.172038,19.4324479 C2.145966,19.5193124 2.15733,19.5345634 2.262289,19.5650655 C2.666078,19.6744749 2.949533,19.7487408 3.051148,19.7692965 C3.147416,19.7845475 3.164129,19.7646549 3.291818,19.4278063 L3.434213,19.4669285 L3.094603,20.642583 L2.949533,20.6034608 C3.024407,20.2520243 3.021733,20.2255008 2.930145,20.189031 C2.813154,20.1419518 2.537053,20.0656967 2.002233,19.9138496 C1.463401,19.7692965 1.187301,19.6917152 1.066966,19.6704964 C0.96535,19.6559085 0.950643,19.6724857 0.823623,20.0133128 L0.677884,19.9702121 L1.017495,18.7985361 L1.164571,18.8376583 C1.089696,19.1904209 1.096381,19.2149552 1.187301,19.2500988 C1.257496,19.2792747 1.463401,19.342268 1.629864,19.3893472 L1.860505,19.4543298 C1.957441,19.4815164 1.974823,19.4755486 2.004238,19.387358 L2.262289,18.4948419 C2.283013,18.4039989 2.278333,18.3907372 2.174044,18.3628875 L1.937386,18.298568 C1.780282,18.2501626 1.569697,18.2030834 1.495491,18.18518 C1.396549,18.1692659 1.376493,18.1898216 1.253485,18.5299856 L1.107078,18.4868849 L1.447357,17.3125566 L1.594432,17.3523418 C1.520895,17.7104092 1.524906,17.7296387 1.615825,17.7661086 L1.615825,17.7661086 Z M4.510539,15.0819296 C4.430316,14.8770355 4.275218,14.6655105 4.1609,14.6144528 C4.064633,14.5680366 3.996443,14.5992017 3.913546,14.7331455 L3.778504,14.6674998 L4.130816,13.9308093 L4.275218,13.9938027 C4.191652,14.16289 4.200343,14.3167264 4.363463,14.5196312 C4.44636,14.6204206 4.569369,14.8107267 4.673659,15.0428074 C4.974495,14.9778248 5.055387,14.941355 5.122239,14.8060851 C5.173047,14.7052958 5.175053,14.5733413 5.155665,14.3936446 L5.308089,14.4692366 C5.342184,14.6913709 5.330819,14.8956019 5.251933,15.0507645 C5.175053,15.2085793 5.042016,15.2927915 4.773269,15.3836345 C4.84079,15.621683 4.850149,15.8710039 4.722461,16.1355759 C4.510539,16.5758662 4.064633,16.6660461 3.728364,16.5055789 C3.414158,16.3583734 3.258391,16.0871705 3.244352,15.576593 C2.85995,15.607095 2.728251,15.5971487 2.609253,15.5421124 C2.395325,15.4399969 2.262289,15.213884 2.432763,14.8591321 C2.578501,14.5547749 2.813154,14.4135372 3.08658,14.5428393 C3.350648,14.668826 3.400787,14.9300825 3.391428,15.190676 C3.778504,15.168131 4.144187,15.1356397 4.510539,15.0819296 L4.510539,15.0819296 Z M5.729928,9.90918249 C5.540067,10.2181814 5.540067,10.2433787 5.608925,10.3050458 C5.70185,10.389258 5.935166,10.548399 6.398454,10.8620395 C6.851045,11.1770062 7.086366,11.3374734 7.196004,11.3958251 C7.284918,11.4455567 7.305642,11.4336211 7.536283,11.1491565 L7.66464,11.236021 L6.949987,12.2379465 L6.819624,12.151082 C7.010823,11.8447355 7.017508,11.8162227 6.943302,11.7558817 C6.861741,11.6942146 6.623078,11.5218118 6.274776,11.2850895 C6.191879,11.2227592 6.171824,11.2240854 6.119679,11.2996774 L5.574831,12.0615651 C5.521349,12.1351679 5.526697,12.151082 5.616948,12.211423 C5.96057,12.4514607 6.20525,12.6119279 6.292827,12.6603333 C6.379066,12.7047602 6.403802,12.6961401 6.638454,12.4130016 L6.756783,12.5025185 L6.040793,13.5024547 L5.916447,13.4155902 C6.110319,13.1059283 6.111656,13.0840464 6.036781,13.0164114 C5.944525,12.9368409 5.709873,12.7776999 5.249927,12.4653855 C4.798673,12.1490927 4.558673,11.9892886 4.453046,11.932263 C4.363463,11.8831946 4.339396,11.893804 4.111429,12.1756162 L3.984409,12.0880886 L4.7004,11.0888155 L4.823408,11.1723645 C4.633547,11.4846788 4.630205,11.5092131 4.703074,11.5722064 C4.765247,11.6226011 4.936389,11.7479247 5.080791,11.8453986 L5.272657,11.977353 C5.35288,12.0343785 5.376947,12.0343785 5.433103,11.9634282 L5.97862,11.2041928 C6.028759,11.1252853 6.027422,11.1113605 5.935166,11.0503564 L5.736614,10.9130973 C5.600903,10.8149603 5.420401,10.7048877 5.350875,10.6637763 C5.265304,10.6233279 5.244579,10.6326112 5.011264,10.9104449 L4.888924,10.8268959 L5.600903,9.8276227 L5.729928,9.90918249 Z M7.863192,7.55787353 C7.633888,7.84432741 7.627203,7.86886166 7.692718,7.94445365 C7.777621,8.02999197 7.99088,8.21963505 8.569155,8.73618036 C8.989657,9.10353094 9.329268,9.50668826 8.713556,10.1711021 C8.337176,10.5822165 7.840462,10.6796904 7.340405,10.238074 C6.672549,9.6499152 6.459289,9.46093521 6.358342,9.39263718 C6.274776,9.33494855 6.256726,9.34157942 5.988648,9.59222657 L5.874998,9.49276342 L6.713997,8.5883118 L6.82631,8.6857857 C6.597674,8.97025032 6.590989,8.99146912 6.653162,9.07037656 C6.739401,9.15657796 6.949318,9.34754721 7.627203,9.94299996 C7.841799,10.132643 8.229544,10.3627345 8.605923,9.96289259 C9.0291,9.50005738 8.851272,9.23548539 8.301744,8.7448005 C7.863192,8.35623111 7.648595,8.17122965 7.54698,8.09762691 C7.468762,8.04524298 7.446701,8.04789533 7.165252,8.31777203 L7.05294,8.21300417 L7.747537,7.46437816 L7.863192,7.55787353 Z M11.979969,6.90473215 L12.078243,7.01944632 L11.126931,7.82178243 L11.023979,7.70972061 C11.294063,7.44912715 11.300748,7.4192882 11.244592,7.35430561 L9.940968,5.86368447 L9.931609,5.8729677 L10.711777,7.85361064 C10.73317,7.91196236 10.753226,7.9742926 10.786652,8.02999197 L10.580746,8.20504712 C10.553337,8.1791867 10.499855,8.15001084 10.449047,8.11950881 L8.544419,7.0419913 L8.533723,7.04862218 L9.626093,8.2866069 C9.702305,8.37413448 9.821302,8.48022851 9.862751,8.51669833 C9.940968,8.57969166 9.955676,8.57505005 10.237793,8.37413448 L10.338072,8.48221777 L9.557903,9.14199003 L9.453613,9.03191747 C9.737736,8.76469313 9.739742,8.74281124 9.687597,8.66324071 C9.616733,8.55913595 9.433557,8.34363245 9.067874,7.93517043 C8.701522,7.51941444 8.515672,7.30590021 8.42141,7.22434042 C8.347204,7.15803165 8.327148,7.16201018 8.015616,7.39210161 L7.916005,7.27871361 L8.653389,6.65541118 C8.671439,6.67397763 8.703528,6.70050114 8.738291,6.72105686 L10.458406,7.69446959 L10.467766,7.6885018 L9.714338,5.76090588 L10.436345,5.15418064 L10.537961,5.26756864 C10.259854,5.53479298 10.245815,5.55932722 10.305983,5.63823466 C10.375509,5.73769781 10.562028,5.94988587 10.923031,6.36696803 C11.291389,6.77874549 11.477907,6.99491208 11.573506,7.07647186 C11.642364,7.14410681 11.663757,7.14012828 11.979969,6.90473215 L11.979969,6.90473215 Z M12.347658,4.32333176 L13.899974,5.37366267 C14.105879,5.51622652 14.150002,5.53611915 14.402036,5.37101032 L14.484933,5.49699698 L13.454736,6.15411688 L13.367828,6.02415169 C13.667995,5.82190995 13.673344,5.7814616 13.618524,5.7058696 C13.58443,5.64486553 13.231448,5.40018617 13.191337,5.37366267 C13.171281,5.36769488 13.156574,5.36769488 13.135181,5.37631502 C13.0583,5.41941572 12.897854,5.50694329 12.592338,5.70122799 C12.401809,5.81992068 12.404483,5.84445493 12.415848,5.92535163 C12.468661,6.15411688 12.516795,6.33712909 12.543536,6.36829421 C12.602366,6.45847413 12.648495,6.45847413 12.948662,6.29137603 L13.032228,6.42531975 L12.221976,6.93589727 L12.140415,6.81189987 C12.364371,6.64546486 12.357018,6.54732788 12.292839,6.23302432 L11.95724,4.61973196 C11.903758,4.34852909 11.887044,4.27890489 11.846933,4.14429808 L12.001362,4.05080272 C12.082922,4.13302559 12.246042,4.2563599 12.347658,4.32333176 L12.347658,4.32333176 Z M16.570731,4.52955203 L16.332736,4.64227694 C16.07736,4.45329695 15.863432,4.32863646 15.569281,4.18010482 L14.220866,3.44938218 L14.21418,3.45667615 L14.539752,4.09456651 C14.786438,4.58060979 14.9168,4.83589855 14.982316,4.93867714 C15.036466,5.01957384 15.059865,5.01957384 15.462985,4.85181265 L15.530506,4.98509328 L14.575184,5.44859158 L14.510337,5.31531095 C14.81251,5.14158197 14.826549,5.12036317 14.786438,5.03018324 C14.746995,4.91745833 14.617969,4.66482192 14.36861,4.17413703 C14.124598,3.68610449 13.994904,3.43479425 13.923372,3.33135257 C13.872564,3.2491297 13.846492,3.2491297 13.528942,3.37776871 L13.461421,3.24448808 L14.128609,2.92156438 C14.166046,2.94410936 14.226214,2.97726374 14.293066,3.01903827 L16.037248,3.97454763 L16.045271,3.97388455 L15.796579,3.48187348 C15.548556,2.99450402 15.4202,2.7425307 15.349336,2.63842593 C15.301202,2.55487688 15.276467,2.55487688 14.912789,2.70340853 L14.844599,2.57079099 L15.759142,2.12652223 L15.825994,2.25847668 C15.524489,2.40568215 15.508445,2.44016271 15.585325,2.61787021 C15.662206,2.78430522 15.753125,2.98787315 15.839365,3.1576236 C16.152903,3.77097971 16.414965,4.28619885 16.570731,4.52955203 L16.570731,4.52955203 Z M19.815083,35.879012 C22.964505,36.7469938 26.099219,37.7177542 29.106914,38.9418141 C30.943352,39.7043649 32.868704,40.4582956 34.507259,41.5179097 C34.911717,41.8388442 35.278737,42.3268767 35.203862,42.9203402 C34.641633,45.1967203 31.405303,45.4394104 31.881293,48.1235893 C32.027031,49.1228625 32.694219,49.996149 33.693664,50.2693411 C34.146256,50.397317 34.751271,50.397317 35.203862,50.2693411 C35.278737,50.4450594 35.594281,50.6121575 35.237957,50.7301871 C33.91294,51.5610359 32.209538,52.4940003 30.590371,51.6969689 C29.799506,51.3408908 29.334212,50.5020849 29.128306,49.6964334 C28.800729,47.2622384 31.113826,46.4957091 32.28575,44.8678288 C32.462241,44.5455682 32.547144,44.1623035 32.462241,43.7816911 C32.235611,43.3274761 31.908034,43.04699 31.464802,42.7791025 C27.106687,40.3873452 22.371523,38.7733898 17.505329,37.5373943 C16.699088,37.4618023 15.446941,37.0009564 14.910783,37.9193328 L14.910783,37.9617704 C14.474905,38.0526135 14.642036,37.5373943 14.642036,37.3106183 C14.779084,36.5354688 15.239698,35.9055355 15.983766,35.5905689 C17.247947,35.2245444 18.587671,35.6635085 19.815083,35.879012 L19.815083,35.879012 Z M18.127058,1.82879586 C18.175191,1.97865368 18.284161,2.05689802 18.566947,2.07015978 L19.201377,2.09336785 C19.609846,2.10928195 19.811741,2.24985654 19.91202,2.57079099 C20.056421,3.02434297 19.764276,3.41490162 19.20472,3.58597825 C18.952018,3.66157024 18.658535,3.63902526 18.412518,3.71130182 C18.353688,3.53956211 18.231348,3.23719412 18.13508,3.02434297 L18.287504,2.94079392 C18.52483,3.31013377 18.79692,3.52630035 19.164609,3.41490162 C19.545668,3.30217671 19.667339,3.0283215 19.601155,2.81745961 C19.531629,2.59333597 19.333077,2.57079099 19.061656,2.56283393 L18.765499,2.55487688 C18.088952,2.54559365 17.951904,2.35396131 17.869007,2.0907155 C17.732628,1.65307762 18.008729,1.25190957 18.538869,1.09210543 C18.802268,1.00855638 19.040931,0.982032874 19.238815,0.970097295 C19.249511,1.00855638 19.264219,1.07022354 19.282937,1.1206182 C19.335082,1.28108542 19.391907,1.44088956 19.463439,1.60334604 L19.300988,1.65307762 C19.111127,1.25456192 18.859093,1.17233904 18.526836,1.2718022 C18.231348,1.3633083 18.064216,1.61594471 18.127058,1.82879586 L18.127058,1.82879586 Z M22.292637,2.7856314 L20.313135,3.19210416 L20.281714,3.04290942 C20.602606,2.95339259 20.613971,2.93747848 20.610628,2.8446462 C20.599932,2.71998572 20.533748,2.44546741 20.424778,1.91035564 C20.313135,1.37590696 20.252299,1.10072557 20.212187,0.9860114 C20.180098,0.892516035 20.160711,0.886548246 19.831797,0.92567042 L19.801713,0.783769654 L21.127398,0.511240612 C21.327287,0.470792262 21.529182,0.407798931 21.664224,0.358067354 C21.701661,0.525828541 21.826007,0.909093228 21.871467,1.00059933 L21.727734,1.05165708 C21.529182,0.62661787 21.447622,0.597442012 20.953582,0.699557516 L20.635364,0.76188776 C20.593915,0.77316025 20.573859,0.795705232 20.586561,0.846099897 L20.75503,1.62854337 C20.763052,1.67761186 20.774417,1.68888435 20.875364,1.67297025 L20.980323,1.65307762 C21.365393,1.57682253 21.374084,1.51250303 21.356034,1.25721427 L21.510463,1.22737532 C21.531856,1.33877405 21.550575,1.45282514 21.582664,1.6166078 C21.618096,1.75917165 21.654864,1.91035564 21.677594,2.00517718 L21.523834,2.03965774 C21.447622,1.79564147 21.390129,1.74392063 21.108679,1.80359853 L20.866005,1.84736231 C20.823888,1.85996098 20.805838,1.87919052 20.817203,1.92560666 L21.001715,2.80419786 C21.012412,2.85127708 21.037816,2.8665281 21.083276,2.85525561 L21.683611,2.73788909 C21.971077,2.67555884 22.024559,2.58935744 22.047957,2.34733043 L22.071356,2.09336785 L22.246509,2.10265108 C22.246509,2.3009143 22.265896,2.63643667 22.292637,2.7856314 L22.292637,2.7856314 Z M24.592364,0.659109167 C24.643172,1.17233904 24.059549,1.3202076 24.059549,1.35070963 C24.060886,1.37325461 24.074257,1.38850563 24.118379,1.43823721 L24.787573,2.13315311 C24.951362,2.30887135 24.996153,2.33871029 25.175986,2.32279619 L25.18802,2.47000166 L24.574314,2.53034264 L23.661777,1.50189363 C23.631025,1.47006542 23.604284,1.46741307 23.447849,1.47802247 C23.307458,1.49459966 23.292082,1.50056745 23.294088,1.53770036 C23.359603,2.16763367 23.375648,2.26775991 23.392361,2.36191836 C23.414422,2.45806608 23.435815,2.46734931 23.806178,2.45276138 L23.81888,2.60460846 L22.578766,2.72197498 L22.564059,2.57476951 C22.925731,2.5164178 22.945786,2.50050369 22.945786,2.4030298 C22.947792,2.28500019 22.923725,2.00186175 22.865563,1.45879293 C22.812081,0.915061017 22.784003,0.637227273 22.757931,0.515882225 C22.73587,0.421060685 22.716482,0.413103633 22.345451,0.423713036 L22.330075,0.277170656 L23.716596,0.140574591 C24.003393,0.114051083 24.155817,0.136596065 24.314257,0.22147129 C24.466012,0.3017049 24.569634,0.446921105 24.592364,0.659109167 L24.592364,0.659109167 Z M27.430253,0.151183994 L27.324626,0.151183994 C27.160169,0.157814871 27.094653,0.22412364 26.928859,0.646510501 C26.374652,2.07015978 26.314484,2.23394244 26.258997,2.54095204 L26.022339,2.54095204 C25.986907,2.29826195 25.354482,0.879917369 25.167964,0.500631208 C25.019551,0.200252483 24.996821,0.196937045 24.710024,0.192958519 L24.708019,0.0444268755 L25.940779,0.0251973323 L25.944121,0.174392063 L25.774316,0.175718239 C25.606516,0.181686028 25.573758,0.232080693 25.573758,0.287116971 C25.57777,0.361382793 25.762283,0.818250214 25.952144,1.28904248 L26.226908,1.95411943 L26.501671,1.24063707 C26.654095,0.834827406 26.835934,0.361382793 26.835934,0.263245814 C26.835934,0.166435011 26.778441,0.16378266 26.458217,0.166435011 L26.452869,0.0145879293 L27.424904,0 L27.430253,0.151183994 Z M28.983236,0.156488696 L28.967192,0.305683427 C28.579447,0.300378725 28.554712,0.308335777 28.540673,0.40249423 C28.511258,0.525828541 28.487191,0.802336109 28.445742,1.34938346 C28.402288,1.89311536 28.375547,2.17492763 28.382901,2.29163107 C28.382901,2.39043113 28.406968,2.4030298 28.79137,2.45806608 L28.783347,2.60925007 L27.492425,2.50912383 L27.505796,2.35926601 C27.896215,2.36191836 27.918944,2.35396131 27.937663,2.25980286 C27.959056,2.13978399 27.98446,1.85996098 28.026577,1.31755525 C28.073374,0.77316025 28.097441,0.493337244 28.092092,0.368676758 C28.089418,0.277170656 28.068026,0.261919639 27.678944,0.20423101 L27.695657,0.0543731909 L28.983236,0.156488696 Z M31.422684,0.564950715 C31.399286,0.756583058 31.393938,1.08149603 31.401292,1.24395251 L31.223464,1.25456192 C31.165971,0.823554915 30.985469,0.55765675 30.581011,0.493337244 C30.132431,0.420397598 29.759394,0.795705232 29.650424,1.46343454 C29.53477,2.17028602 29.859004,2.59134671 30.274158,2.65500312 C30.654549,2.71269175 30.96675,2.57079099 31.216779,2.306219 L31.359175,2.42690096 C30.990149,2.77701126 30.657223,2.93615231 30.159172,2.86188648 C29.58892,2.76905421 29.036718,2.28632637 29.184462,1.40707209 C29.289421,0.76454011 29.805522,0.192958519 30.687307,0.334196197 C30.917948,0.371329108 31.216779,0.473444613 31.422684,0.564950715 L31.422684,0.564950715 Z M33.862132,1.07353898 C33.820684,1.24063707 33.74982,1.63848969 33.743804,1.73662667 L33.592048,1.72270183 C33.613441,1.25456192 33.553942,1.18891623 33.071267,1.06226648 L32.757729,0.982032874 C32.712269,0.970097295 32.684191,0.9860114 32.672158,1.03309063 L32.459567,1.80824014 C32.448202,1.85001466 32.449539,1.87322273 32.550486,1.89908315 L32.654108,1.92560666 C33.027813,2.0257329 33.071267,1.97268589 33.168872,1.73861593 L33.325307,1.78105354 C33.289206,1.89311536 33.250432,1.99456778 33.208983,2.16299206 C33.168872,2.3009143 33.13344,2.45342447 33.112047,2.55288762 L32.953607,2.51442853 C33.003078,2.25847668 32.975668,2.18553704 32.700236,2.11856518 L32.459567,2.04894097 C32.421461,2.03965774 32.391377,2.04894097 32.377338,2.09867255 L32.139343,2.96665434 C32.129984,3.0117443 32.139343,3.0336262 32.185472,3.04622486 L32.780459,3.20271356 C33.061239,3.27896864 33.152827,3.21730149 33.286532,3.01638592 L33.420237,2.79955624 L33.569318,2.89039926 C33.477731,3.06081279 33.346031,3.37379018 33.297897,3.5183433 L31.342461,3.00246108 L31.387253,2.85525561 C31.717504,2.91957511 31.735554,2.91294424 31.772323,2.82210122 C31.813772,2.70937632 31.896669,2.44016271 32.037728,1.91035564 C32.185472,1.38054858 32.257004,1.11332424 32.278397,0.990653014 C32.291767,0.893842211 32.278397,0.879254281 31.958173,0.769844812 L31.999622,0.621313169 L33.306588,0.970097295 C33.505809,1.0238074 33.716394,1.05762487 33.862132,1.07353898 L33.862132,1.07353898 Z M36.099017,1.92560666 C36.086984,1.97003354 36.060911,2.0310376 36.041524,2.07546448 C35.980688,2.23526861 35.935897,2.39573584 35.881078,2.5648232 L35.719964,2.50846074 C35.820911,2.07811683 35.67183,1.86460259 35.350938,1.74856225 C35.056118,1.63848969 34.764641,1.73397432 34.685755,1.94947782 C34.630936,2.0960202 34.670379,2.22200686 34.886313,2.39573584 L35.372331,2.79491463 C35.683195,3.05418192 35.755396,3.28361026 35.634392,3.60122926 C35.463919,4.05212889 34.989266,4.18275717 34.441744,3.98117851 C34.194389,3.89365094 33.975782,3.69140919 33.735781,3.60653396 C33.797954,3.43346808 33.891548,3.1251323 33.947704,2.89570396 L34.120183,2.92222746 C34.074055,3.35522373 34.155615,3.68809375 34.517287,3.82270055 C34.888318,3.96194897 35.154391,3.81606968 35.232609,3.60918631 C35.321523,3.39103046 35.175784,3.25377131 34.967873,3.08667321 L34.733889,2.90233483 C34.20776,2.4892312 34.218456,2.25980286 34.318067,1.9992094 C34.485866,1.57085475 34.957177,1.41834458 35.474615,1.60997692 C35.732666,1.69949376 35.941245,1.82349116 36.099017,1.92560666 L36.099017,1.92560666 Z M37.147933,3.74511929 C37.08576,3.8684536 36.938685,3.91951136 36.814339,3.85651802 C36.687319,3.79949248 36.634506,3.65626554 36.700021,3.53425741 C36.752166,3.40694457 36.906596,3.35588682 37.032278,3.41490162 C37.160635,3.47259025 37.209438,3.62045881 37.147933,3.74511929 L37.147933,3.74511929 Z M40.61223,4.19668201 L40.531339,4.32266867 C40.201087,4.16352763 40.179026,4.16021219 40.117522,4.23978271 C40.041978,4.33791969 39.896908,4.57663126 39.501142,5.23839278 C39.217687,5.71448974 38.884093,6.1209625 38.098576,5.67205213 C37.608547,5.39421839 37.409995,4.93867714 37.7476,4.37041099 C38.202866,3.61051249 38.345262,3.36583313 38.394064,3.25244514 C38.438855,3.1629283 38.422142,3.1463511 38.121974,2.94145701 L38.196181,2.81480726 L39.273174,3.42816337 L39.192951,3.55415004 C38.859357,3.39832443 38.84465,3.39832443 38.779134,3.47590569 C38.706265,3.57470575 38.562532,3.81739585 38.098576,4.58458831 C37.960191,4.82595223 37.802419,5.24900218 38.288437,5.52484666 C38.829274,5.83384553 39.062589,5.61502659 39.4383,4.98509328 C39.736462,4.4884406 39.878858,4.24177197 39.933677,4.13302559 C39.968441,4.04549802 39.960418,4.02295304 39.632841,3.8094388 L39.71039,3.67881052 L40.61223,4.19668201 Z M42.331008,5.46914729 C42.304936,5.50495403 42.261482,5.55402252 42.233404,5.59248161 C42.129782,5.73106693 42.036857,5.87429388 41.94059,6.02348861 L41.803542,5.92535163 C42.020813,5.53744533 41.937247,5.28945053 41.661146,5.09450275 C41.405101,4.91215363 41.099585,4.92939391 40.964543,5.10643833 C40.872286,5.23441425 40.872286,5.37101032 41.028721,5.59248161 L41.385045,6.10902692 C41.615018,6.44057077 41.619029,6.68326086 41.415129,6.95313755 C41.131006,7.33176063 40.632286,7.33905459 40.162981,7.00154295 C39.947048,6.843065 39.795961,6.60170107 39.587381,6.45184326 C39.691003,6.29933309 39.872173,6.02879331 39.984485,5.81992068 L40.146937,5.89617577 C39.980474,6.29933309 39.969109,6.6434756 40.273288,6.86892542 C40.59886,7.09570141 40.893679,7.03536043 41.028721,6.85632675 C41.171786,6.66867293 41.067496,6.49693322 40.912398,6.28010354 L40.74393,6.04470741 C40.352842,5.49964933 40.425043,5.28812435 40.59886,5.06201145 C40.873624,4.69598704 41.369669,4.67078971 41.818918,4.99371342 C42.036857,5.15550682 42.205994,5.32393109 42.331008,5.46914729 L42.331008,5.46914729 Z M43.931457,6.67198837 C43.867947,6.76415756 43.787056,6.95247446 43.745607,7.06984099 L43.098475,8.80845692 C43.011567,9.03987452 43.004881,9.07700743 43.229506,9.27858609 L43.129227,9.38534321 L42.218696,8.57969166 L42.318306,8.46696676 C42.59775,8.69506892 42.644546,8.69506892 42.704045,8.62478163 C42.750842,8.5723977 42.90594,8.1791867 42.920647,8.13542291 C42.92399,8.11155175 42.91931,8.09895309 42.90594,8.08038663 C42.843098,8.01341477 42.711399,7.88742811 42.446663,7.65070581 C42.277526,7.50084799 42.258808,7.50482651 42.18527,7.54129634 C41.968668,7.64407493 41.801536,7.74353808 41.776801,7.77006159 C41.703263,7.8502952 41.715965,7.8933959 41.951286,8.14072761 L41.845659,8.25013708 L41.131674,7.61224672 L41.237301,7.50084799 C41.45524,7.6725877 41.550839,7.6400964 41.845659,7.50084799 L43.353183,6.77741931 C43.609897,6.6487803 43.674075,6.62026753 43.793741,6.54732788 L43.931457,6.67198837 Z M47.425169,8.61947693 C47.510741,10.4098137 46.061378,11.5171701 44.964329,12.5694903 L33.7184,21.8368039 C32.70759,22.7578327 31.247531,23.5197205 30.678616,24.9009321 C29.933211,26.7257495 29.655104,28.7534716 29.334881,30.7685951 C29.152373,32.2214203 27.765184,33.4846023 26.476267,34.0183879 C25.472811,34.3618674 24.270135,34.200074 23.176428,34.2829599 L19.255528,34.3088203 C18.925277,34.3784445 18.637811,34.5561521 18.466668,34.820061 L18.32093,35.2013364 C17.901096,35.2616774 18.040149,34.9029469 17.979982,34.6503105 C17.991347,33.806863 18.183214,32.9249563 18.81965,32.4276406 C19.157923,32.0894658 19.635919,32.007243 20.11124,31.931651 L25.82713,31.8507543 C26.145347,31.8381556 26.40273,31.6505018 26.619332,31.4867191 L26.850641,31.0537229 C27.307913,28.2641129 27.569974,25.3757029 28.983236,23.0064906 C30.298225,21.5026077 31.956167,20.4681909 33.420237,19.145331 C36.812334,16.3245559 40.328776,13.4580278 43.679423,10.5961413 C44.62806,9.71821323 45.631517,8.55913595 45.8655,7.16930414 L45.989846,6.79731194 C46.742605,7.04795909 47.376367,7.78332334 47.425169,8.61947693 L47.425169,8.61947693 Z M50.721667,11.765828 C50.890803,13.5051071 49.496929,14.3299881 48.386508,15.4055164 L43.799089,19.2646868 L35.641746,26.0460846 C34.484529,27.3231915 34.425699,29.1327578 34.129543,30.7685951 C34.178345,31.3017177 34.727204,31.5185473 34.62024,32.0775303 L33.485753,34.079392 C33.547926,34.8764234 34.542691,34.4142513 34.864252,34.9135563 C34.874279,35.2000102 34.67907,35.5574145 34.91038,35.7967891 C35.069489,36.0706443 35.724643,35.7032938 35.38169,36.1422578 C35.288096,36.2145344 35.32286,36.3922419 35.350938,36.4877265 C35.487317,36.6627817 35.740688,36.6786958 35.763418,36.9392892 C35.641746,37.2741485 35.641746,37.7396361 35.844978,38.0274161 C37.260245,39.5392561 39.696351,37.6673595 41.171786,39.0863672 C41.543486,39.4086278 41.533458,40.0080591 41.434516,40.4582956 C40.646994,42.7200877 35.984031,42.8871858 37.579132,46.0952041 C37.85657,46.6190434 38.476961,46.9737953 39.097352,47.0149067 C39.622813,47.0977927 40.025934,46.880963 40.462481,46.7509978 C40.59886,46.7509978 40.609556,46.880963 40.665712,46.9532396 L40.665712,47.0401041 C39.317966,47.9796993 37.579132,49.3615741 35.788153,48.3596486 C34.897009,47.8019918 34.435058,46.6568394 34.655003,45.5468306 C35.202525,43.7717448 37.288324,43.3188559 38.331223,41.829561 C38.571892,41.3965647 38.528438,40.8322771 38.271055,40.3966285 C37.938798,39.8144375 37.167989,39.6579488 36.494116,39.5392561 C35.373668,39.5147218 33.657564,40.2076485 33.159513,38.9199322 C33.013774,38.4285842 33.523859,37.5619286 32.721629,37.4492037 C32.611991,37.3112814 32.357283,37.1886102 32.48965,36.9658127 C32.527756,36.8358475 32.756392,36.8199334 32.638732,36.6528353 C32.479623,36.6077454 32.2677,36.6435521 32.139343,36.5102715 C31.684078,36.0235651 32.938231,35.4964104 32.089204,35.1635404 C31.658005,35.1058517 31.07572,35.417503 30.797613,34.9367644 C30.662571,34.4871909 31.006862,34.1642672 31.176667,33.7962536 C31.464802,33.1656572 32.305806,32.7472488 32.089204,31.931651 L31.672044,31.2413767 C31.795721,29.6247689 32.075165,28.0459571 32.48965,26.5228446 C33.049874,24.8313079 34.717845,23.8870711 35.994727,22.7240153 L42.835745,17.0612463 L47.679877,12.8877724 C48.519545,12.1245585 49.25158,11.2658599 49.223502,10.109435 C49.480215,10.0245597 49.652026,10.3275908 49.875314,10.4217493 C50.277097,10.8739751 50.623393,11.1949095 50.721667,11.765828 L50.721667,11.765828 Z M52.939164,36.0016832 L53,36.0567195 C51.892922,37.3802425 50.529131,38.6672957 48.591746,38.5379936 C46.559429,38.4643909 45.248452,36.6077454 43.06906,36.9658127 C41.593625,37.2529297 40.122201,38.1202484 38.539802,37.5373943 C38.135345,37.2157968 37.966876,36.6435521 38.12398,36.0792645 C38.047099,35.7364481 37.200747,35.652236 37.726876,35.2013364 C37.565093,35.0965685 37.288324,35.2013364 37.200747,34.9612986 C37.077738,34.6874434 37.419354,34.2829599 37.052334,34.1032632 C36.724757,34.0555208 36.30158,34.2345545 36.056232,33.9626886 C35.922527,33.7962536 35.946594,33.5668252 35.996065,33.3659096 C36.22938,32.8181992 36.861136,32.385866 36.724757,31.7340508 C36.30158,31.342166 36.441971,30.6810676 36.494116,30.1346833 C36.735453,28.8708382 36.834395,27.5373688 38.035066,26.699226 L44.502378,21.3481083 C45.8655,20.0749799 47.548846,19.2500988 48.534252,17.572487 C49.043,18.2614351 49.286343,19.3760855 48.88456,20.2049451 C47.984056,21.6120172 46.476532,22.6716313 45.137477,23.7849556 L39.877521,28.1016564 C38.912839,28.9550503 38.657463,30.435062 39.097352,31.5888346 C39.146823,32.1730149 38.684872,32.5423547 38.539802,33.0562477 C38.55451,33.2087579 38.585262,33.4023795 38.74504,33.4474694 C38.964316,33.5323447 39.294567,33.4229352 39.416907,33.7080629 C39.448997,34.0097678 39.308606,34.3333546 39.648217,34.450058 C39.782591,34.5243238 39.984485,34.2929062 39.997856,34.532944 C39.914959,34.6662246 39.856128,34.7935374 39.877521,34.9612986 C40.049332,35.2616774 40.425043,35.0965685 40.580141,35.3452264 C40.646994,35.6926844 40.646994,36.1415947 41.04744,36.2868109 C42.411231,36.5102715 43.44544,35.6051568 44.675526,35.3452264 C46.624276,34.7477844 48.50818,35.4950842 50.247014,36.0016832 C51.112754,36.1528672 52.07543,36.1031356 52.939164,36.0016832 L52.939164,36.0016832 Z M43.050341,7.82443478 L43.401317,6.94451741 L42.517527,7.37419824 C42.49346,7.38547073 42.474073,7.39475396 42.464045,7.40403718 C42.457359,7.41729894 42.461371,7.43719157 42.481426,7.44912715 L42.967444,7.88013415 C42.991511,7.90334222 43.004881,7.90068987 43.014241,7.89671134 C43.029617,7.88013415 43.043656,7.84101197 43.050341,7.82443478 L43.050341,7.82443478 Z M24.13175,0.745973655 C24.098324,0.454878158 23.850969,0.280486094 23.455871,0.31629283 C23.193141,0.340827074 23.176428,0.354088828 23.185787,0.440953316 L23.264673,1.24395251 C23.272027,1.30959819 23.28406,1.32285995 23.517375,1.30230423 C24.074257,1.25190957 24.150469,0.9429107 24.13175,0.745973655 L24.13175,0.745973655 Z M12.956016,5.26756864 C12.982089,5.24900218 12.9861,5.23441425 12.979414,5.22380485 C12.971392,5.21120618 12.934623,5.1886612 12.919916,5.1727471 L12.140415,4.61575343 L12.336962,5.56794736 C12.346321,5.59248161 12.348327,5.6090588 12.357018,5.62298364 C12.364371,5.63558231 12.388438,5.62895143 12.401809,5.61635276 L12.956016,5.26756864 Z M4.613492,15.4293875 C4.307307,15.5089581 3.680231,15.5580265 3.391428,15.5593527 C3.398113,15.8172938 3.475662,15.9810765 3.704297,16.0871705 C3.959006,16.2071894 4.430316,16.181329 4.580065,15.8643731 C4.638896,15.7543005 4.646918,15.6031165 4.613492,15.4293875 L4.613492,15.4293875 Z M3.246358,15.213884 C3.264408,15.0288826 3.119338,14.8770355 2.98697,14.8186838 C2.862624,14.759669 2.676106,14.7530381 2.6019,14.9042221 C2.553097,15.0109792 2.582512,15.1435967 2.754992,15.221178 C2.848585,15.2689203 3.019059,15.2861606 3.246358,15.213884 L3.246358,15.213884 Z M1.456048,25.8232871 L0.563567,26.1733974 L1.490142,26.5115722 C1.514209,26.5208554 1.538276,26.5261601 1.551647,26.5261601 C1.56368,26.5261601 1.56836,26.5075936 1.56836,26.4850486 L1.555658,25.8438428 C1.555658,25.8126777 1.546299,25.8007421 1.538276,25.8007421 C1.516215,25.8007421 1.479446,25.8153301 1.456048,25.8232871 L1.456048,25.8232871 Z M3.203572,37.5460145 C3.383405,37.8768952 3.864075,37.9922725 4.545302,37.6395098 C5.228535,37.2900626 5.399677,36.8325321 5.21717,36.498999 C5.042016,36.166129 4.557335,36.0494255 3.876108,36.4048405 C3.196218,36.7569401 3.022402,37.2091659 3.203572,37.5460145 L3.203572,37.5460145 Z M16.180981,48.5917293 C16.067332,48.8582905 16.197026,49.1255148 16.54867,49.2713941 C16.780648,49.3615741 16.796693,49.360911 16.832793,49.2760358 L17.147,48.5313883 C17.167724,48.4710473 17.167724,48.4518178 16.962487,48.3662794 C16.471121,48.1686793 16.256524,48.4067278 16.180981,48.5917293 L16.180981,48.5917293 Z M19.2816,48.8423764 C19.277589,48.8582905 19.278926,48.900065 19.278926,48.9245993 L19.368509,49.8648576 L19.962827,49.0910343 C19.976198,49.0711417 19.991574,49.0572168 19.995585,49.0426289 C19.998928,49.0260517 19.987563,49.0180946 19.962827,49.0074852 L19.325723,48.8337563 C19.297645,48.8264623 19.284275,48.8337563 19.2816,48.8423764 L19.2816,48.8423764 Z M20.997704,50.0889813 C20.914807,50.5233037 21.19024,50.638681 21.575979,50.7096313 C21.740436,50.7381441 21.757149,50.7195777 21.772525,50.6559212 L21.948347,49.7236199 C21.887511,49.7077058 21.83804,49.6957703 21.779879,49.686487 C21.424892,49.625483 21.08595,49.625483 20.997704,50.0889813 L20.997704,50.0889813 Z M25.991587,50.0346081 C26.010305,50.8097576 26.301114,51.0982007 26.991032,51.0836128 C27.224347,51.0783081 27.249082,51.0630571 27.249082,50.9934329 L27.208302,49.0910343 C27.205628,48.9517859 27.180224,48.9418396 26.944903,48.9431657 C26.25298,48.9557644 25.974205,49.2747096 25.991587,50.0346081 L25.991587,50.0346081 Z" id="Fill-1"></path>
        </g>
    </g>
</svg>